<svg id="svg" version="1.1" xmlns="http://www.w3.org/2000/svg" xmlns:xlink="http://www.w3.org/1999/xlink" width="400" height="369.86301369863014" viewBox="0, 0, 400,369.86301369863014"><g id="svgg"><path id="path0" d="M153.377 51.247 C 137.190 53.306,122.317 65.173,117.668 79.741 C 117.408 80.555,117.059 81.637,116.893 82.146 C 113.726 91.834,115.997 107.700,122.377 120.444 C 128.183 132.044,133.827 139.295,144.496 148.864 C 146.327 150.507,148.575 152.544,149.491 153.392 C 152.473 156.152,153.471 157.049,155.653 158.927 C 156.834 159.944,160.055 162.775,162.810 165.217 C 165.564 167.660,168.482 170.214,169.293 170.893 C 171.254 172.537,172.926 174.003,175.435 176.282 C 176.577 177.320,177.909 178.485,178.395 178.872 C 180.013 180.161,184.084 183.662,184.459 184.087 C 184.662 184.318,186.827 186.218,189.269 188.309 C 191.711 190.400,194.126 192.472,194.635 192.914 C 204.566 201.539,209.660 205.735,210.199 205.735 C 210.380 205.735,211.730 204.695,213.200 203.423 C 214.671 202.151,218.380 198.971,221.443 196.357 C 224.506 193.743,228.168 190.579,229.581 189.326 C 230.995 188.074,232.743 186.578,233.467 186.001 C 234.190 185.425,235.449 184.342,236.263 183.593 C 237.077 182.845,238.326 181.755,239.038 181.171 C 239.750 180.587,241.582 178.985,243.108 177.611 C 244.635 176.238,247.299 173.898,249.029 172.412 C 252.476 169.451,256.158 166.230,259.368 163.367 C 260.509 162.350,262.545 160.552,263.893 159.372 C 265.240 158.192,266.908 156.693,267.599 156.042 C 268.290 155.390,269.918 153.941,271.215 152.821 C 294.093 133.087,305.137 112.817,304.443 91.834 C 303.379 59.639,266.593 40.001,238.668 56.719 C 235.624 58.541,232.684 61.227,222.018 71.931 C 215.812 78.160,210.465 83.256,210.136 83.256 C 209.808 83.256,205.062 78.748,199.589 73.237 C 186.097 59.651,183.361 57.352,177.428 54.617 C 169.968 51.178,162.334 50.108,153.377 51.247 " stroke="none" fill="#ed4444" fill-rule="evenodd"></path><path id="path1" d="M299.954 215.555 C 295.225 217.953,287.366 222.055,284.736 223.498 C 283.719 224.056,279.223 226.386,274.746 228.674 C 270.268 230.963,266.438 232.960,266.235 233.113 C 266.031 233.265,263.534 234.599,260.685 236.076 C 254.045 239.519,254.385 239.164,253.639 243.417 C 251.742 254.231,246.703 259.611,233.437 264.986 C 229.594 266.543,228.395 266.894,224.607 267.571 C 223.488 267.771,221.739 268.121,220.722 268.348 C 218.332 268.883,198.364 268.867,193.776 268.327 C 178.353 266.511,173.474 265.574,169.103 263.587 C 164.049 261.290,165.440 258.049,171.051 259.045 C 172.320 259.270,175.023 259.603,177.058 259.785 C 179.093 259.968,183.006 260.371,185.754 260.682 C 188.501 260.993,192.581 261.412,194.820 261.614 C 197.058 261.815,199.795 262.146,200.901 262.350 C 204.772 263.062,215.567 262.472,221.832 261.207 C 225.871 260.391,228.928 259.648,230.250 259.161 C 233.805 257.851,234.911 257.396,236.633 256.535 C 249.129 250.291,251.234 239.622,240.905 234.890 C 237.185 233.187,227.364 232.756,221.832 234.054 C 219.866 234.515,202.459 232.958,198.662 231.982 C 197.926 231.792,196.951 231.637,196.495 231.637 C 195.666 231.637,192.177 230.922,188.344 229.965 C 182.321 228.463,178.339 227.438,176.688 226.965 C 172.221 225.686,166.272 223.848,160.592 221.992 C 158.252 221.227,155.797 220.490,155.138 220.355 C 154.479 220.220,153.845 219.956,153.729 219.768 C 153.613 219.580,153.141 219.426,152.681 219.426 C 152.220 219.426,151.106 219.197,150.205 218.916 C 149.303 218.635,146.984 218.125,145.051 217.781 C 143.117 217.438,140.813 216.995,139.930 216.798 C 136.690 216.073,123.743 216.342,120.318 217.204 C 111.268 219.484,107.370 221.915,98.057 231.092 C 94.496 234.601,90.917 238.033,90.105 238.718 C 87.206 241.161,85.619 242.665,76.724 251.399 C 67.115 260.834,67.184 260.735,68.733 262.961 C 69.292 263.766,69.917 264.686,70.120 265.007 C 70.324 265.328,72.322 268.200,74.561 271.389 C 76.799 274.579,79.917 279.054,81.489 281.333 C 83.061 283.612,84.589 285.809,84.885 286.216 C 85.977 287.719,89.106 292.210,94.424 299.907 C 95.409 301.332,96.975 303.580,97.905 304.903 C 98.835 306.226,100.519 308.690,101.648 310.379 C 104.061 313.990,103.970 313.987,106.832 310.558 C 109.165 307.764,113.992 303.397,116.660 301.668 C 117.520 301.111,118.307 300.546,118.409 300.413 C 118.803 299.900,127.263 295.105,130.250 293.702 C 137.112 290.480,148.254 287.885,155.248 287.879 C 156.864 287.878,159.186 287.704,160.407 287.493 C 161.628 287.282,169.870 286.957,178.723 286.771 C 199.533 286.334,202.634 286.033,215.541 283.191 C 222.041 281.760,233.645 278.207,237.743 276.394 C 238.150 276.214,239.981 275.459,241.813 274.716 C 245.462 273.237,255.759 268.236,259.081 266.328 C 260.234 265.666,262.315 264.471,263.706 263.671 C 266.597 262.009,268.763 260.537,272.710 257.552 C 274.237 256.398,278.649 253.229,282.516 250.510 C 297.419 240.030,302.344 236.224,309.381 229.748 C 318.626 221.241,317.660 213.498,307.355 213.510 C 303.996 213.514,303.956 213.525,299.954 215.555 M50.139 261.638 C 48.714 262.641,46.144 264.413,44.428 265.576 C 35.558 271.586,35.559 271.572,42.848 281.961 C 46.635 287.360,48.298 289.750,49.414 291.397 C 50.104 292.414,51.330 294.163,52.140 295.282 C 52.950 296.401,55.037 299.399,56.779 301.943 C 58.521 304.487,60.653 307.576,61.518 308.808 C 62.382 310.039,64.470 313.037,66.157 315.468 C 67.843 317.900,70.467 321.637,71.986 323.774 C 73.506 325.911,74.859 327.909,74.995 328.215 C 75.130 328.520,75.670 329.301,76.196 329.951 C 76.721 330.600,77.734 331.970,78.446 332.994 C 80.777 336.347,83.221 336.466,87.480 333.431 C 88.922 332.404,91.974 330.268,94.261 328.686 C 101.499 323.681,101.498 323.567,94.144 313.043 C 91.513 309.278,88.695 305.239,87.881 304.066 C 87.067 302.894,85.271 300.313,83.890 298.331 C 82.509 296.349,81.057 294.228,80.663 293.617 C 80.269 293.006,79.651 292.108,79.289 291.621 C 78.927 291.133,78.381 290.358,78.076 289.899 C 77.584 289.158,73.067 282.683,67.374 274.561 C 66.305 273.034,64.988 271.119,64.448 270.305 C 63.908 269.491,63.372 268.742,63.257 268.640 C 63.141 268.538,62.239 267.241,61.251 265.756 C 56.662 258.862,54.972 258.236,50.139 261.638 " stroke="none" fill="#241f24" fill-rule="evenodd"></path><path id="path3" d="M303.402 213.117 C 302.882 213.274,301.050 214.155,299.332 215.074 C 297.613 215.993,293.876 217.953,291.027 219.428 C 288.178 220.904,284.847 222.649,283.626 223.305 C 282.405 223.962,278.409 226.049,274.746 227.944 C 271.082 229.838,267.169 231.882,266.050 232.484 C 261.119 235.140,256.150 237.748,255.045 238.262 C 253.744 238.866,253.312 239.818,252.933 242.923 C 250.622 261.814,228.241 271.148,193.895 267.546 C 179.959 266.085,173.670 264.936,169.666 263.120 C 163.170 260.175,166.183 259.162,177.538 260.473 C 180.938 260.866,185.550 261.373,187.789 261.601 C 190.028 261.829,193.858 262.249,196.300 262.535 C 204.229 263.464,205.470 263.512,211.286 263.112 C 235.442 261.453,251.347 251.766,247.740 240.907 C 245.585 234.421,238.765 231.781,227.170 232.945 C 210.252 234.645,189.120 230.793,157.447 220.237 C 148.160 217.142,134.689 215.016,127.660 215.536 C 115.115 216.463,108.370 219.823,97.888 230.364 C 94.827 233.443,91.076 237.028,89.554 238.330 C 82.333 244.510,66.975 259.812,66.975 260.826 C 66.975 261.567,70.837 267.554,71.499 267.838 C 71.656 267.906,71.785 268.107,71.785 268.283 C 71.785 268.460,72.909 270.177,74.283 272.098 C 75.657 274.020,77.946 277.297,79.371 279.381 C 80.796 281.466,82.710 284.223,83.626 285.508 C 84.542 286.794,86.790 290.046,88.622 292.735 C 90.453 295.425,92.160 297.835,92.414 298.092 C 92.669 298.349,92.877 298.661,92.877 298.786 C 92.877 299.021,93.387 299.761,96.207 303.619 C 97.123 304.872,99.121 307.754,100.648 310.024 C 104.025 315.046,104.225 315.099,106.764 311.670 C 112.919 303.357,128.706 293.671,141.016 290.655 C 148.612 288.794,158.159 288.001,178.908 287.508 C 192.335 287.190,203.775 286.481,205.617 285.853 C 205.857 285.772,207.689 285.430,209.687 285.094 C 227.200 282.150,254.774 271.153,267.411 262.072 C 268.048 261.614,268.668 261.240,268.789 261.240 C 268.910 261.240,269.966 260.490,271.137 259.573 C 273.569 257.668,278.779 253.835,279.685 253.284 C 280.019 253.080,280.877 252.483,281.590 251.955 C 282.303 251.428,284.468 249.915,286.401 248.592 C 303.061 237.196,314.003 227.372,316.058 221.964 C 318.374 215.868,311.098 210.781,303.402 213.117 M311.981 214.029 C 317.742 216.442,316.647 223.062,309.381 229.748 C 302.344 236.224,297.419 240.030,282.516 250.510 C 278.649 253.229,274.237 256.398,272.710 257.552 C 268.763 260.537,266.597 262.009,263.706 263.671 C 262.315 264.471,260.234 265.666,259.081 266.328 C 255.759 268.236,245.462 273.237,241.813 274.716 C 239.981 275.459,238.150 276.214,237.743 276.394 C 234.714 277.734,226.042 280.514,219.241 282.325 C 216.562 283.038,208.981 284.608,204.995 285.275 C 199.925 286.123,194.286 286.444,178.723 286.771 C 169.870 286.957,161.628 287.282,160.407 287.493 C 159.186 287.704,156.864 287.878,155.248 287.879 C 148.254 287.885,137.112 290.480,130.250 293.702 C 127.263 295.105,118.803 299.900,118.409 300.413 C 118.307 300.546,117.520 301.111,116.660 301.668 C 113.992 303.397,109.165 307.764,106.832 310.558 C 103.970 313.987,104.061 313.990,101.648 310.379 C 100.519 308.690,98.835 306.226,97.905 304.903 C 96.975 303.580,95.409 301.332,94.424 299.907 C 89.106 292.210,85.977 287.719,84.885 286.216 C 84.589 285.809,83.061 283.612,81.489 281.333 C 79.917 279.054,76.799 274.579,74.561 271.389 C 72.322 268.200,70.324 265.328,70.120 265.007 C 69.917 264.686,69.292 263.766,68.733 262.961 C 67.184 260.735,67.115 260.834,76.724 251.399 C 85.619 242.665,87.206 241.161,90.105 238.718 C 90.917 238.033,94.496 234.601,98.057 231.092 C 107.370 221.915,111.268 219.484,120.318 217.204 C 123.743 216.342,136.690 216.073,139.930 216.798 C 140.813 216.995,143.117 217.438,145.051 217.781 C 146.984 218.125,149.303 218.635,150.205 218.916 C 151.106 219.197,152.220 219.426,152.681 219.426 C 153.141 219.426,153.613 219.580,153.729 219.768 C 153.845 219.956,154.479 220.220,155.138 220.355 C 155.797 220.490,158.252 221.227,160.592 221.992 C 166.272 223.848,172.221 225.686,176.688 226.965 C 178.339 227.438,182.321 228.463,188.344 229.965 C 192.177 230.922,195.666 231.637,196.495 231.637 C 196.951 231.637,197.926 231.792,198.662 231.982 C 202.459 232.958,219.866 234.515,221.832 234.054 C 227.364 232.756,237.185 233.187,240.905 234.890 C 251.234 239.622,249.129 250.291,236.633 256.535 C 234.911 257.396,233.805 257.851,230.250 259.161 C 228.928 259.648,225.871 260.391,221.832 261.207 C 215.567 262.472,204.772 263.062,200.901 262.350 C 199.795 262.146,197.058 261.815,194.820 261.614 C 192.581 261.412,188.501 260.993,185.754 260.682 C 183.006 260.371,179.093 259.968,177.058 259.785 C 175.023 259.603,172.320 259.270,171.051 259.045 C 165.440 258.049,164.049 261.290,169.103 263.587 C 173.474 265.574,178.353 266.511,193.776 268.327 C 198.364 268.867,218.332 268.883,220.722 268.348 C 221.739 268.121,223.488 267.771,224.607 267.571 C 228.395 266.894,229.594 266.543,233.437 264.986 C 246.703 259.611,251.742 254.231,253.639 243.417 C 254.385 239.164,254.045 239.519,260.685 236.076 C 263.534 234.599,266.031 233.265,266.235 233.113 C 266.438 232.960,270.268 230.963,274.746 228.674 C 279.223 226.386,283.719 224.056,284.736 223.498 C 287.366 222.055,295.225 217.953,299.954 215.555 C 304.399 213.300,308.884 212.731,311.981 214.029 M53.099 259.093 C 52.488 259.309,51.739 259.691,51.434 259.942 C 51.129 260.193,49.463 261.368,47.734 262.553 C 37.470 269.584,37.840 269.287,37.168 271.046 C 36.445 272.938,36.958 275.032,38.644 277.073 C 39.099 277.625,40.247 279.241,41.195 280.666 C 42.143 282.091,44.091 284.921,45.524 286.957 C 46.958 288.992,49.313 292.405,50.759 294.542 C 52.204 296.679,53.676 298.760,54.029 299.167 C 54.382 299.574,55.745 301.489,57.057 303.423 C 59.491 307.008,68.028 319.330,70.091 322.234 C 70.717 323.116,71.480 324.203,71.785 324.648 C 81.233 338.431,81.250 338.441,88.206 333.673 C 103.579 323.134,103.203 324.835,93.291 310.638 C 91.870 308.603,89.785 305.606,88.657 303.978 C 87.529 302.350,86.133 300.352,85.553 299.537 C 84.974 298.723,82.032 294.477,79.015 290.102 C 75.999 285.726,73.055 281.539,72.473 280.798 C 71.891 280.056,71.415 279.347,71.415 279.222 C 71.415 279.096,70.533 277.788,69.454 276.315 C 68.375 274.841,65.919 271.327,63.996 268.505 C 59.739 262.258,57.935 259.896,57.080 259.448 C 55.921 258.841,54.235 258.691,53.099 259.093 M58.003 261.408 C 58.801 262.315,60.263 264.272,61.251 265.756 C 62.239 267.241,63.141 268.538,63.257 268.640 C 63.372 268.742,63.908 269.491,64.448 270.305 C 64.988 271.119,66.305 273.034,67.374 274.561 C 73.067 282.683,77.584 289.158,78.076 289.899 C 78.381 290.358,78.927 291.133,79.289 291.621 C 79.651 292.108,80.269 293.006,80.663 293.617 C 81.057 294.228,82.509 296.349,83.890 298.331 C 85.271 300.313,87.067 302.894,87.881 304.066 C 88.695 305.239,91.513 309.278,94.144 313.043 C 101.498 323.567,101.499 323.681,94.261 328.686 C 91.974 330.268,88.922 332.404,87.480 333.431 C 83.221 336.466,80.777 336.347,78.446 332.994 C 77.734 331.970,76.721 330.600,76.196 329.951 C 75.670 329.301,75.130 328.520,74.995 328.215 C 74.859 327.909,73.506 325.911,71.986 323.774 C 70.467 321.637,67.843 317.900,66.157 315.468 C 64.470 313.037,62.382 310.039,61.518 308.808 C 60.653 307.576,58.521 304.487,56.779 301.943 C 55.037 299.399,52.950 296.401,52.140 295.282 C 51.330 294.163,50.104 292.414,49.414 291.397 C 48.298 289.750,46.635 287.360,42.848 281.961 C 35.559 271.572,35.558 271.586,44.428 265.576 C 46.144 264.413,48.714 262.641,50.139 261.638 C 53.816 259.050,55.874 258.990,58.003 261.408 " stroke="none" fill="#9b999b" fill-rule="evenodd"></path><path id="path4" d="M153.562 50.182 C 118.865 56.631,105.064 87.758,121.942 121.500 C 127.665 132.943,133.284 139.881,146.531 151.865 C 152.917 157.642,156.179 160.553,159.633 163.557 C 161.854 165.488,165.267 168.463,167.219 170.169 C 169.171 171.875,171.184 173.625,171.693 174.057 C 172.893 175.079,178.534 180.034,181.983 183.097 C 183.471 184.419,185.231 185.931,185.895 186.459 C 186.559 186.987,187.358 187.674,187.670 187.987 C 188.330 188.647,190.849 190.829,197.040 196.103 C 199.482 198.183,202.324 200.610,203.356 201.495 C 207.774 205.287,209.368 206.475,210.035 206.475 C 210.887 206.475,218.107 200.508,233.488 187.093 C 236.031 184.874,239.765 181.625,241.783 179.873 C 243.802 178.122,247.705 174.690,250.456 172.248 C 253.207 169.806,256.717 166.735,258.256 165.424 C 261.349 162.789,270.474 154.672,273.080 152.237 C 273.996 151.381,275.745 149.805,276.966 148.734 C 292.733 134.908,302.968 116.769,305.143 98.797 C 308.242 73.190,288.974 51.180,262.489 50.073 C 246.511 49.406,240.067 52.693,221.922 70.768 C 215.640 77.026,210.296 82.146,210.048 82.146 C 209.799 82.146,204.273 76.852,197.767 70.382 C 182.694 55.389,180.498 53.891,169.103 50.823 C 167.102 50.284,155.570 49.808,153.562 50.182 M164.716 51.076 C 170.263 51.629,176.519 53.758,181.621 56.828 C 184.802 58.742,189.010 62.584,199.589 73.237 C 205.062 78.748,209.808 83.256,210.136 83.256 C 210.465 83.256,215.812 78.160,222.018 71.931 C 232.684 61.227,235.624 58.541,238.668 56.719 C 256.241 46.199,279.944 49.973,293.987 65.528 C 298.978 71.056,301.688 76.315,303.791 84.551 C 305.164 89.929,304.575 100.551,302.486 108.058 C 297.930 124.431,288.532 137.884,271.215 152.821 C 269.918 153.941,268.290 155.390,267.599 156.042 C 266.908 156.693,265.240 158.192,263.893 159.372 C 262.545 160.552,260.509 162.350,259.368 163.367 C 256.158 166.230,252.476 169.451,249.029 172.412 C 247.299 173.898,244.635 176.238,243.108 177.611 C 241.582 178.985,239.750 180.587,239.038 181.171 C 238.326 181.755,237.077 182.845,236.263 183.593 C 235.449 184.342,234.190 185.425,233.467 186.001 C 232.743 186.578,230.995 188.074,229.581 189.326 C 228.168 190.579,224.506 193.743,221.443 196.357 C 218.380 198.971,214.671 202.151,213.200 203.423 C 211.730 204.695,210.380 205.735,210.199 205.735 C 209.660 205.735,204.566 201.539,194.635 192.914 C 194.126 192.472,191.711 190.400,189.269 188.309 C 186.827 186.218,184.662 184.318,184.459 184.087 C 184.084 183.662,180.013 180.161,178.395 178.872 C 177.909 178.485,176.577 177.320,175.435 176.282 C 172.926 174.003,171.254 172.537,169.293 170.893 C 168.482 170.214,165.564 167.660,162.810 165.217 C 160.055 162.775,156.834 159.944,155.653 158.927 C 153.471 157.049,152.473 156.152,149.491 153.392 C 148.575 152.544,146.327 150.507,144.496 148.864 C 133.827 139.295,128.183 132.044,122.377 120.444 C 115.997 107.700,113.726 91.834,116.893 82.146 C 117.059 81.637,117.408 80.555,117.668 79.741 C 123.563 61.268,143.726 48.983,164.716 51.076 M307.586 212.651 C 307.942 212.744,308.525 212.744,308.881 212.651 C 309.237 212.558,308.945 212.482,308.233 212.482 C 307.521 212.482,307.229 212.558,307.586 212.651 M218.052 233.391 C 219.230 233.465,221.062 233.464,222.123 233.390 C 223.184 233.315,222.220 233.255,219.981 233.256 C 217.743 233.257,216.875 233.318,218.052 233.391 M208.977 263.351 C 209.438 263.440,210.104 263.437,210.458 263.344 C 210.811 263.251,210.435 263.179,209.621 263.183 C 208.807 263.187,208.517 263.263,208.977 263.351 M199.913 268.166 C 200.475 268.251,201.308 268.248,201.763 268.161 C 202.218 268.073,201.758 268.003,200.740 268.006 C 199.722 268.009,199.350 268.081,199.913 268.166 M187.697 287.411 C 188.460 287.491,189.709 287.491,190.472 287.411 C 191.235 287.331,190.611 287.266,189.084 287.266 C 187.558 287.266,186.933 287.331,187.697 287.411 M170.675 287.784 C 171.642 287.860,173.224 287.860,174.191 287.784 C 175.157 287.707,174.366 287.645,172.433 287.645 C 170.500 287.645,169.709 287.707,170.675 287.784 M157.174 288.513 C 157.634 288.602,158.300 288.598,158.654 288.506 C 159.007 288.413,158.631 288.341,157.817 288.345 C 157.003 288.349,156.713 288.425,157.174 288.513 " stroke="none" fill="#ef9b9b" fill-rule="evenodd"></path></g></svg>